<svg xmlns="http://www.w3.org/2000/svg" version="1.1" xmlns:xlink="http://www.w3.org/1999/xlink" xmlns:svgjs="http://svgjs.dev/svgjs" width="1000" height="623" viewBox="0 0 1000 623"><g transform="matrix(1,0,0,1,-0.6060606060606233,0.2522267206477409)"><svg viewBox="0 0 396 247" data-background-color="#ffffff" preserveAspectRatio="xMidYMid meet" height="623" width="1000" xmlns="http://www.w3.org/2000/svg" xmlns:xlink="http://www.w3.org/1999/xlink"><g id="tight-bounds" transform="matrix(1,0,0,1,0.2400000000000091,-0.09999999999999432)"><svg viewBox="0 0 395.52 247.2" height="247.2" width="395.52"><g><svg></svg></g><g><svg viewBox="0 0 395.52 247.2" height="247.2" width="395.52"><g transform="matrix(1,0,0,1,121.70827325581395,47.215199999999996)"><svg viewBox="0 0 152.10345348837208 152.7696" height="152.7696" width="152.10345348837208"><g><svg viewBox="0 0 152.10345348837208 152.7696" height="152.7696" width="152.10345348837208"><g><svg viewBox="0 0 152.1034534883721 152.76960000000003" height="152.7696" width="152.10345348837208"><g><svg viewBox="0 0 152.1034534883721 152.76960000000003" height="152.76960000000003" width="152.1034534883721"><g id="textblocktransform"><svg viewBox="0 0 152.1034534883721 152.76960000000003" height="152.76960000000003" width="152.1034534883721" id="textblock"><g><svg viewBox="0 0 152.1034534883721 152.76960000000003" height="152.76960000000003" width="152.1034534883721"><g transform="matrix(1,0,0,1,0,0)"><svg width="152.1034534883721" viewBox="3.700000047683716 -34.400001525878906 34.25 34.400001525878906" height="152.76960000000003" data-palette-color="#4a596d"><path d="M37.95 0L28.3 0 13.85-16.7 13.85 0 3.7 0 3.7-34.4 13.35-34.4 27.8-17.45 27.8-34.4 37.95-34.4 37.95 0Z" opacity="1" transform="matrix(1,0,0,1,0,0)" fill="#4a596d" class="wordmark-text-0" data-fill-palette-color="primary" id="text-0"></path></svg></g></svg></g></svg></g></svg></g></svg></g></svg></g></svg></g><path d="M304.01 41.215L304.01 0 56.81 0 56.81 247.2 304.01 247.2 304.01 205.985 290.233 205.985 290.233 233.423 70.587 233.423 70.587 13.777 290.233 13.777 290.233 41.215Z" fill="#4a596d" stroke="transparent" data-fill-palette-color="primary"></path></svg></g><defs></defs></svg><rect width="395.52" height="247.2" fill="none" stroke="none" visibility="hidden"></rect></g></svg></g></svg>